<svg width="20" height="20" viewBox="0 0 20 20" fill="none" xmlns="http://www.w3.org/2000/svg">
<g clip-path="url(#clip0_468_276)">
<path d="M2.34644 0.214111C0.986967 0.214111 0 1.1519 0 2.44305C0 3.73377 0.967384 4.67069 2.29944 4.67069C2.99049 4.67069 3.5858 4.44658 4.02141 4.02272C4.43917 3.61584 4.66938 3.0549 4.66894 2.43305C4.63848 1.12666 3.68328 0.214111 2.34644 0.214111ZM3.41478 3.39912C3.14498 3.66153 2.75898 3.80035 2.29944 3.80035C1.45826 3.80035 0.870341 3.24246 0.870341 2.44305C0.870341 1.63059 1.46348 1.08445 2.34644 1.08445C3.20938 1.08445 3.77946 1.62189 3.79904 2.44349C3.7986 2.81861 3.66239 3.1576 3.41478 3.39912Z" fill="white"/>
<path d="M0.417328 19.7859H4.32864V5.4057H0.417328V19.7859ZM1.28767 6.27604H3.4583V18.9151H1.28767V6.27604Z" fill="white"/>
<path d="M14.6426 5.4057C12.8288 5.4057 11.7183 6.03191 11.0751 6.6207L10.9528 5.4057H6.52756V19.7855H10.8614V12.2279C10.8614 11.9024 10.9933 11.2265 11.076 11.0481C11.5995 9.92059 12.3058 9.9206 13.3754 9.9206C14.6074 9.9206 15.6483 11.076 15.6483 12.4433V19.7863H20V11.6617C20 7.3631 17.2227 5.4057 14.6426 5.4057ZM19.1297 18.9156H16.5186V12.4428C16.5186 10.6034 15.0791 9.04982 13.3754 9.04982C12.2823 9.04982 11.0438 9.04982 10.2861 10.6817C10.1299 11.019 9.99064 11.8271 9.99064 12.2279V18.9156H7.3979V6.27604H10.1656L10.3431 8.03587H11.0564L11.1839 7.83004C11.4741 7.36266 12.3919 6.27561 14.6426 6.27561C16.8037 6.27561 19.1297 7.96059 19.1297 11.6604V18.9156Z" fill="white"/>
</g>
<defs>
<clipPath id="clip0_468_276">
<rect width="20" height="20" fill="white"/>
</clipPath>
</defs>
</svg>
