<svg width="9" height="15" viewBox="0 0 12 20" fill="none" xmlns="http://www.w3.org/2000/svg">
<path d="M9.99159 0H2.00842C1.31361 0 0.747925 0.565725 0.747925 1.26049V18.7395C0.747925 19.4343 1.31365 20 2.00842 20H9.99159C10.6864 20 11.2521 19.4342 11.2521 18.7395V1.26049C11.2521 0.565725 10.6867 0 9.99159 0ZM9.99159 19.4958H2.00842C1.63261 19.4958 1.32202 19.2191 1.26423 18.8588C1.4454 19.2118 1.80911 19.4558 2.23229 19.4558H9.76771C10.1909 19.4558 10.5546 19.2114 10.7358 18.8588C10.678 19.2191 10.3674 19.4958 9.99159 19.4958ZM5.18922 0.933759C5.20131 0.966696 5.23291 0.988209 5.26754 0.988209H6.64034C6.67732 0.988209 6.7099 0.964024 6.72066 0.928697L6.7768 0.744505C6.78017 0.73308 6.77476 0.722992 6.77342 0.711568H9.7674C10.2773 0.711568 10.6918 1.12604 10.6918 1.63594V18.3634C10.6918 18.8733 10.2773 19.2877 9.7674 19.2877H2.23226C1.72235 19.2877 1.30789 18.8733 1.30789 18.3634V1.63629C1.30789 1.12639 1.72235 0.711919 2.23226 0.711919H5.12064C5.11931 0.724679 5.1146 0.736806 5.11962 0.749566L5.18922 0.933759ZM5.28469 0.711919H6.61109L6.5778 0.82015H5.3254L5.28469 0.711919ZM9.76771 0.543861H2.23226C1.80907 0.543861 1.44536 0.788233 1.26419 1.14084C1.32202 0.780816 1.63258 0.503859 2.00838 0.503859H9.99156C10.3673 0.503859 10.6779 0.780499 10.7357 1.14084C10.5546 0.788233 10.1909 0.543861 9.76771 0.543861Z" fill="white"/>
<path d="M1.63026 2.14285V16.7227C1.63026 16.7922 1.68672 16.8487 1.75632 16.8487H10.1388C10.2084 16.8487 10.2649 16.7923 10.2649 16.7227V2.14285C10.2649 2.07329 10.2084 2.0168 10.1388 2.0168H1.75632C1.68672 2.0168 1.63026 2.07325 1.63026 2.14285ZM1.88237 2.2689H10.0128V16.5966H1.88237V2.2689Z" fill="white"/>
<path d="M6.23124 17.5842H5.74788C5.51595 17.5842 5.32771 17.7727 5.32771 18.0044V18.1516C5.32771 18.3832 5.51595 18.5717 5.74788 18.5717H6.23124C6.46285 18.5717 6.6514 18.3832 6.6514 18.1516V18.0044C6.65144 17.7724 6.46285 17.5842 6.23124 17.5842ZM6.48335 18.1513C6.48335 18.2901 6.37005 18.4034 6.23124 18.4034H5.74788C5.60906 18.4034 5.49577 18.2901 5.49577 18.1513V18.004C5.49577 17.8652 5.60906 17.7519 5.74788 17.7519H6.23124C6.37005 17.7519 6.48335 17.8652 6.48335 18.004V18.1513Z" fill="white"/>
<path d="M8.00973 1.49882C8.14506 1.49882 8.25477 1.38911 8.25477 1.25378C8.25477 1.11845 8.14506 1.00874 8.00973 1.00874C7.8744 1.00874 7.76469 1.11845 7.76469 1.25378C7.76469 1.38911 7.8744 1.49882 8.00973 1.49882Z" fill="white"/>
<path d="M8.69582 17.9603H8.52741V17.8971L8.34589 18.0017L8.52741 18.1065V18.0447H8.69582C8.90486 18.0447 8.98993 18.0541 8.98993 18.1495C8.98993 18.2497 8.94792 18.2544 8.8148 18.2544H8.59767C8.57447 18.2544 8.55567 18.2732 8.55567 18.2964C8.55567 18.3196 8.57447 18.3384 8.59767 18.3384H8.8148C8.93045 18.3384 9.07397 18.3384 9.07397 18.1495C9.07397 17.9606 8.88135 17.9603 8.69582 17.9603Z" fill="white"/>
<path d="M3.45816 17.8047H3.0484C3.0252 17.8047 3.00639 17.8235 3.00639 17.8467V18.246C3.00639 18.2692 3.0252 18.288 3.0484 18.288H3.45816C3.48136 18.288 3.50016 18.2692 3.50016 18.246V17.8467C3.50016 17.8235 3.48136 17.8047 3.45816 17.8047ZM3.41615 18.2037H3.09044V18.0356H3.23765V17.8884H3.41615V18.2037Z" fill="white"/>
</svg>
